<mxfile host="app.diagrams.net" modified="2023-10-25T16:02:31.794Z" agent="Mozilla/5.0 (Windows NT 10.0; Win64; x64) AppleWebKit/537.36 (KHTML, like Gecko) Chrome/118.0.0.0 Safari/537.36 Edg/118.0.2088.61" etag="NSyFAybjbZBax3gqhqw2" version="22.0.8" type="google">
  <diagram name="Page-1" id="ghk-Gmwka4Cki1xlqkqO">
    <mxGraphModel dx="873" dy="561" grid="0" gridSize="10" guides="1" tooltips="1" connect="1" arrows="1" fold="1" page="0" pageScale="1" pageWidth="850" pageHeight="1100" math="0" shadow="0">
      <root>
        <mxCell id="0" />
        <mxCell id="1" parent="0" />
        <mxCell id="XPZ7cGOgIw4SnJEf8Y8P-8" value="" style="edgeStyle=orthogonalEdgeStyle;rounded=0;orthogonalLoop=1;jettySize=auto;html=1;" edge="1" parent="1" source="XPZ7cGOgIw4SnJEf8Y8P-6" target="XPZ7cGOgIw4SnJEf8Y8P-7">
          <mxGeometry relative="1" as="geometry" />
        </mxCell>
        <mxCell id="XPZ7cGOgIw4SnJEf8Y8P-6" value="start&amp;nbsp;" style="ellipse;whiteSpace=wrap;html=1;" vertex="1" parent="1">
          <mxGeometry x="-214" y="6" width="120" height="54" as="geometry" />
        </mxCell>
        <mxCell id="XPZ7cGOgIw4SnJEf8Y8P-10" value="" style="edgeStyle=orthogonalEdgeStyle;rounded=0;orthogonalLoop=1;jettySize=auto;html=1;" edge="1" parent="1" source="XPZ7cGOgIw4SnJEf8Y8P-7" target="XPZ7cGOgIw4SnJEf8Y8P-9">
          <mxGeometry relative="1" as="geometry" />
        </mxCell>
        <mxCell id="XPZ7cGOgIw4SnJEf8Y8P-7" value="read the temperature to be converted from the user: cel" style="shape=parallelogram;perimeter=parallelogramPerimeter;whiteSpace=wrap;html=1;fixedSize=1;" vertex="1" parent="1">
          <mxGeometry x="-250.5" y="91" width="193" height="60" as="geometry" />
        </mxCell>
        <mxCell id="XPZ7cGOgIw4SnJEf8Y8P-12" value="" style="edgeStyle=orthogonalEdgeStyle;rounded=0;orthogonalLoop=1;jettySize=auto;html=1;" edge="1" parent="1" source="XPZ7cGOgIw4SnJEf8Y8P-9" target="XPZ7cGOgIw4SnJEf8Y8P-11">
          <mxGeometry relative="1" as="geometry" />
        </mxCell>
        <mxCell id="XPZ7cGOgIw4SnJEf8Y8P-9" value="initialize f = 0" style="whiteSpace=wrap;html=1;" vertex="1" parent="1">
          <mxGeometry x="-214" y="178" width="120" height="51" as="geometry" />
        </mxCell>
        <mxCell id="XPZ7cGOgIw4SnJEf8Y8P-14" value="" style="edgeStyle=orthogonalEdgeStyle;rounded=0;orthogonalLoop=1;jettySize=auto;html=1;" edge="1" parent="1" source="XPZ7cGOgIw4SnJEf8Y8P-11" target="XPZ7cGOgIw4SnJEf8Y8P-13">
          <mxGeometry relative="1" as="geometry" />
        </mxCell>
        <mxCell id="XPZ7cGOgIw4SnJEf8Y8P-11" value="f=((5/9)*cel)+32" style="whiteSpace=wrap;html=1;" vertex="1" parent="1">
          <mxGeometry x="-214" y="256" width="120" height="51" as="geometry" />
        </mxCell>
        <mxCell id="XPZ7cGOgIw4SnJEf8Y8P-16" value="" style="edgeStyle=orthogonalEdgeStyle;rounded=0;orthogonalLoop=1;jettySize=auto;html=1;" edge="1" parent="1" source="XPZ7cGOgIw4SnJEf8Y8P-13" target="XPZ7cGOgIw4SnJEf8Y8P-15">
          <mxGeometry relative="1" as="geometry" />
        </mxCell>
        <mxCell id="XPZ7cGOgIw4SnJEf8Y8P-13" value="display the value of f" style="whiteSpace=wrap;html=1;" vertex="1" parent="1">
          <mxGeometry x="-214" y="334" width="120" height="60" as="geometry" />
        </mxCell>
        <mxCell id="XPZ7cGOgIw4SnJEf8Y8P-15" value="stop" style="whiteSpace=wrap;html=1;" vertex="1" parent="1">
          <mxGeometry x="-214" y="429" width="120" height="60" as="geometry" />
        </mxCell>
      </root>
    </mxGraphModel>
  </diagram>
</mxfile>
